# xmcd
#
# Track frame offsets:
#  150
#  22705
#  36509
#  56395
#  79429
#  109400
#  133044
#  174941
#  195460
#  216061
#  240039
#  268920
#  280482
#  304778
#  321769
#
# Disc length: 4576 seconds
#
# Revision: 0
# Processed by: cddbd v1.5.1PL0 Copyright (c) Steve Scherf et al.
# Submitted via: AltoMP3_Maker 3.0
#
DISCID=cf11de0f
DTITLE=Clark, Ely, Hiatt, Lovett - Live at McCarter Theater Princeton, NJ [CD1]
DYEAR=1900
DGENRE=
TTITLE0=The Cape (GC)
TTITLE1=I'm Gonna Strangle You Shorty (JE)
TTITLE2=Howlin' Down The Cumberland (JH)
TTITLE3=Walk Through the Bottomland (LL)
TTITLE4=L.A. Freeway (GC)
TTITLE5=Ranches and Rivers (JE)
TTITLE6=Wintertime Blues (JH)
TTITLE7=In My Own Mind (LL)
TTITLE8=Magdalene (GC)
TTITLE9=Behind the Bamboo Shade (JE)
TTITLE10=Perfectly Good Guitar (JH)
TTITLE11=All Downhill From Here (LL)
TTITLE12=Out In the Parking Lot (GC)
TTITLE13=Me And Billy the Kid (JE)
TTITLE14=Icy Blue Heart (JH)
EXTD=
EXTT0=
EXTT1=
EXTT2=
EXTT3=
EXTT4=
EXTT5=
EXTT6=
EXTT7=
EXTT8=
EXTT9=
EXTT10=
EXTT11=
EXTT12=
EXTT13=
EXTT14=
PLAYORDER=
